<?xml version="1.0" encoding="UTF-8"?>
<svg id="Layer_2" data-name="Layer 2" xmlns="http://www.w3.org/2000/svg" viewBox="0 0 1200 1200">
  <defs>
    <style>
      .cls-1 {
        fill: none;
      }

      .cls-2 {
        fill: #015c45;
      }
    </style>
  </defs>
  <g id="Layer_1-2" data-name="Layer 1">
    <g>
      <rect class="cls-1" x="0" y="0" width="1200" height="1200" rx="12" ry="12"/>
      <g>
        <path class="cls-2" d="M916.16,259.51c-24.58-3.46-52.8,31.11-77.19,93.32-28.03,71.81-56.45,143.82-86.6,213.52v.58c-.19,0-17.09,39.55-17.09,39.55h0l-.58,1.34c-12.48,29.57-53.76,126.73-67.01,157.83-8.83,20.74-18.24,40.9-28.42,60.1h0v.38c-7.1,13.25-14.78,25.73-23.04,36.48-57.6,74.5-134.79,94.28-191.24,97.54-84.87,1.34-197.39-33.03-244.43-159.75-22.27-57.6-27.65-127.11-25.92-194.12h390.75l-15.75,36.29-3.26,7.3-32.83.96c-28.61.77-56.26.38-85.25,1.73-25.54,1.15-49.73-.77-69.7,21.89-7.87,9.02-13.25,19.97-15.94,31.68-2.69,11.71-1.54,28.23,6.34,47.81,16.32,36.29,49.73,58.18,89.48,58.18s2.5,0,3.65,0c22.47-.77,45.89-8.64,65.28-23.04,17.09-12.67,29.95-32.45,39.94-54.34l25.15-62.79,159.75-377.11h0c4.03-10.37,8.26-20.55,12.29-30.91v-.38c7.3-17.86,15.55-18.05,15.75-18.05,0,0,26.31-6.53,82.57-6.53s85.06,4.61,86.6,5.57c1.34.96,7.1,1.73,7.1,14.98h-.38Z"/>
        <path class="cls-2" d="M1031.94,606.67h-.38l-21.12-66.63v-.58l-22.27-70.08h0l-41.28-130.76c-7.87-23.23-14.4-47.24-33.41-43.2-33.41,7.3-52.61,62.98-68.74,106.95-3.84,10.37-7.87,21.7-9.98,33.99l4.99,6.14,133.26,163.98,1.54,1.73h-206.99l-.19.38-15.17,34.75-3.26,7.49h297.24l-14.21-44.55v.38Z"/>
      </g>
    </g>
  </g>
</svg>