<?xml version="1.0" encoding="UTF-8"?>
<svg id="Layer_2" data-name="Layer 2" xmlns="http://www.w3.org/2000/svg" viewBox="0 0 1200 953.15">
  <defs>
    <style>
      .cls-1 {
        fill: none;
      }

      .cls-2 {
        fill: #015c45;
      }
    </style>
  </defs>
  <g id="Layer_1-2" data-name="Layer 1">
    <g>
      <rect class="cls-1" x="0" y="0" width="1200" height="953.15" rx="12" ry="12"/>
      <g>
        <g>
          <path class="cls-2" d="M813.38,161.08c-14.19-2-30.5,18-44.58,53.89-16.24,41.54-32.68,83.14-50.06,123.45l-.16.38-9.75,22.92v.03s-.33.76-.33.76c-7.23,17.04-31.09,73.22-38.75,91.23-5.12,12.03-10.59,23.63-16.44,34.74-.01.02-.03.05-.03.07v.02s-.08.12-.11.17c-4.05,7.69-8.5,14.83-13.37,21.12-33.29,43.07-77.93,54.53-110.53,56.34-49.03.82-114.1-19.07-141.23-92.33-12.86-33.29-16.01-73.5-14.99-112.17l225.83.03-9.11,20.89-1.86,4.27-19,.51c-16.5.45-32.55.22-49.28,1-14.78.69-28.73-.48-40.3,12.67-4.59,5.22-7.65,11.59-9.23,18.35-2.19,9.36-.92,16.35,3.66,27.67,9.44,21.02,28.78,33.58,51.74,33.58.7,0,1.4-.01,2.1-.04,12.99-.44,26.57-4.97,37.75-13.33,9.86-7.37,17.3-18.78,23.08-31.4l14.5-36.34,92.39-217.94.02-.06h0c2.37-5.96,4.73-11.93,7.07-17.92.03-.08.06-.14.08-.2,4.26-10.33,8.99-10.39,9.08-10.39,0,0,15.23-3.81,47.68-3.81,29.07,0,49.2,2.62,50.07,3.19.83.58,4.12,1,4.06,8.62Z"/>
          <path class="cls-2" d="M880.29,361.72h-.19l-12.16-38.55-.11-.34-12.77-40.48v-.03s-23.83-75.53-23.83-75.53c-4.5-13.38-8.33-27.27-19.34-24.94-19.27,4.23-30.43,36.44-39.72,61.79-2.21,6.03-4.52,12.59-5.78,19.66l2.91,3.6,77.05,94.84.84,1.04h-104.89l-14.76-.1-.15.33-8.77,20.11-1.89,4.34h171.8l-8.23-25.71ZM854.83,379.55v-.05l.09.05h-.09Z"/>
        </g>
        <g>
          <path class="cls-2" d="M855.7,618.98c-8.78,0-15.27-2.29-19.46-6.88-4.2-4.58-6.29-10.39-6.29-17.42s2.09-13.12,6.29-17.71c4.19-4.58,10.68-6.88,19.46-6.88s15.26,2.3,19.46,6.88c4.19,4.59,6.29,10.49,6.29,17.71s-2.1,12.83-6.29,17.42c-4.2,4.59-10.68,6.88-19.46,6.88Z"/>
          <g>
            <path class="cls-2" d="M456.29,640.79c-11.81-7.71-26.3-11.56-43.46-11.56-13.07,0-24.73,2.3-34.98,6.88-10.24,4.59-18.83,10.78-25.76,18.59-6.93,7.81-12.2,16.64-15.81,26.49-3.61,9.86-5.41,20.15-5.41,30.88v5.85c0,10.34,1.8,20.44,5.41,30.29,3.61,9.86,8.93,18.78,15.95,26.78,7.02,8,15.75,14.34,26.2,19.02,10.44,4.68,22.49,7.03,36.15,7.03s25.36-2.39,35.71-7.17c10.34-4.78,18.92-11.36,25.76-19.76,6.83-8.39,11.41-17.95,13.76-28.68h-43.02c-1.95,4.88-5.66,8.98-11.12,12.29-5.47,3.32-12.49,4.98-21.07,4.98-9.37,0-16.98-1.95-22.83-5.85-5.85-3.9-10.15-9.41-12.88-16.54-1.52-3.96-2.6-8.31-3.28-13.02h117.13v-15.8c0-14.63-3.12-28.14-9.37-40.54-6.25-12.39-15.27-22.44-27.07-30.15ZM379.17,689.08c2.93-7.12,7.22-12.48,12.88-16.1,5.66-3.61,12.59-5.41,20.78-5.41s14.68,1.81,20.05,5.41c5.36,3.61,9.37,8.78,12,15.51,1.41,3.61,2.43,7.67,3.09,12.15h-72.02c.73-4.23,1.8-8.09,3.23-11.56Z"/>
            <path class="cls-2" d="M611.27,629.81h-2.05c-12.29,0-22.73,2.74-31.32,8.2-8.59,5.47-14.98,13.66-19.17,24.58-1.49,3.87-2.7,8.11-3.66,12.67v-40.47h-37.46v160.39h47.12v-93.37c0-8.97,2.68-16.19,8.05-21.66,5.36-5.46,12.44-8.19,21.22-8.19s15.37,2.68,20.34,8.05c4.98,5.37,7.46,12.34,7.46,20.93v94.24h47.12v-91.61c0-24.78-4.93-43.27-14.78-55.46-9.86-12.19-24.15-18.29-42.88-18.29Z"/>
            <path class="cls-2" d="M751.46,591.47h-43.61l-.09,43.32h-24.5v34.54h24.42l-.13,63.22c0,16.2,2.34,29.03,7.02,38.49,4.68,9.47,12,16.24,21.95,20.34,9.95,4.1,23.02,6.15,39.22,6.15h22.54v-39.8h-23.71c-7.42,0-13.13-2-17.12-6-4-4-6-9.8-6-17.42v-64.97h46.83v-34.54h-46.83v-43.32Z"/>
            <polygon class="cls-2" points="884.38 634.79 837.26 634.79 837.26 634.8 827.21 634.8 816.1 669.47 837.26 669.47 837.26 795.18 884.38 795.18 884.38 669.62 884.38 669.62 884.38 634.8 884.38 634.8 884.38 634.79"/>
            <path class="cls-2" d="M1019.26,734.01c-.78,5.27-2.44,9.91-4.98,13.9-2.54,4-6,7.12-10.39,9.37-4.39,2.25-9.71,3.37-15.95,3.37-8.39,0-15.17-1.9-20.34-5.71-5.17-3.81-8.93-9.17-11.27-16.1-2.34-6.92-3.51-14.68-3.51-23.27,0-9.17,1.27-17.22,3.81-24.15,2.53-6.92,6.39-12.34,11.56-16.24,5.17-3.9,11.66-5.85,19.46-5.85,9.17,0,16.29,2.49,21.37,7.46,5.07,4.98,8,11.17,8.78,18.59h45.95c-.78-13.07-4.49-24.58-11.12-34.54-6.64-9.95-15.51-17.71-26.63-23.27-11.12-5.56-23.9-8.34-38.34-8.34-13.27,0-25.02,2.25-35.27,6.73-10.24,4.49-18.83,10.64-25.76,18.44-6.93,7.81-12.15,16.73-15.66,26.78-3.51,10.05-5.27,20.54-5.27,31.46v5.56c0,10.54,1.71,20.74,5.12,30.58,3.41,9.86,8.53,18.69,15.37,26.49,6.83,7.81,15.32,14.05,25.46,18.73,10.14,4.68,22.24,7.03,36.29,7.03s27.32-2.83,38.63-8.49c11.31-5.66,20.39-13.51,27.22-23.56,6.83-10.05,10.54-21.7,11.12-34.98h-45.66Z"/>
            <path class="cls-2" d="M209.02,578.14l-13.9,43.46h62.25l.97.71c1.73,1.27,2.35,2.46,2.36,4.56.03,13.44-.16,27.08-.33,39.11-.23,16.63-.5,35.49-.16,53.5l-.02.45c-2.3,24.92-23.81,38.37-42.88,38.37-15.27,0-28.14-8.35-34.42-22.34-6.76-15.05-1.86-28.37,3.15-38.3l2.16-4.28h-46.95l-.74,1.86c-7.41,18.59-7.22,39.29.53,58.29,8.4,20.62,25,36.89,45.52,44.66,9.97,3.77,20.31,5.68,30.72,5.68,22.46,0,44.22-8.8,61.26-24.78,17.21-16.13,27.59-37.82,29.24-61.09v-.1s-.04-139.76-.04-139.76h-98.72Z"/>
          </g>
        </g>
      </g>
    </g>
  </g>
</svg>